<svg width="41" height="41" viewBox="0 0 41 41" fill="none" xmlns="http://www.w3.org/2000/svg">
<path d="M20.5 4.19617e-05C13.0221 4.19617e-05 6.93826 6.08383 6.93826 13.5617C6.93826 16.5736 8.86154 21.4839 12.8177 28.5734C15.6161 33.5877 18.3684 37.7687 18.4841 37.9442L20.5 41L22.5159 37.9443C22.6317 37.7687 25.3842 33.5878 28.1822 28.5735C32.1385 21.4839 34.0616 16.5737 34.0616 13.5618C34.0617 6.08383 27.9779 4.19617e-05 20.5 4.19617e-05ZM20.5 20.5C16.6176 20.5 13.4702 17.3527 13.4702 13.4702C13.4702 9.58768 16.6176 6.44033 20.5 6.44033C24.3824 6.44033 27.5299 9.58768 27.5299 13.4702C27.5299 17.3527 24.3824 20.5 20.5 20.5Z" fill="#4358C7"/>
</svg>
